<?xml version="1.0" encoding="utf-8"?>
<!-- Generator: Adobe Illustrator 24.0.1, SVG Export Plug-In . SVG Version: 6.00 Build 0)  -->
<svg version="1.1" id="Layer_1" xmlns="http://www.w3.org/2000/svg" xmlns:xlink="http://www.w3.org/1999/xlink" x="0px" y="0px"
	 viewBox="0 0 266.69 235.84" style="enable-background:new 0 0 266.69 235.84;" xml:space="preserve">
<style type="text/css">
	.st0{fill-rule:evenodd;clip-rule:evenodd;fill:#F07F3C;}
	.st1{fill-rule:evenodd;clip-rule:evenodd;fill:#009640;}
	.st2{fill-rule:evenodd;clip-rule:evenodd;fill:#FFFFFF;}
</style>
<g>
	<g>
		<path class="st0" d="M75.2,67.09c-5.82,0-10.42,4.6-10.42,10.29c0,5.69,4.6,10.42,10.42,10.42c5.68,0,10.29-4.74,10.29-10.42
			C85.48,71.69,80.88,67.09,75.2,67.09z"/>
		<path class="st0" d="M88.05,51.93c-5.68,0-10.29,4.6-10.29,10.42c0,5.68,4.6,10.29,10.29,10.29c5.68,0,10.42-4.6,10.42-10.29
			C98.48,56.53,93.74,51.93,88.05,51.93z"/>
		<path class="st0" d="M67.21,84.41c-5.82,0-10.42,4.74-10.42,10.42c0,5.68,4.6,10.42,10.42,10.42c5.68,0,10.29-4.74,10.29-10.42
			C77.5,89.15,72.9,84.41,67.21,84.41z"/>
		<path class="st0" d="M63.96,103.91c-5.68,0-10.42,4.6-10.42,10.29c0,5.82,4.74,10.42,10.42,10.42c5.68,0,10.29-4.6,10.29-10.42
			C74.25,108.51,69.65,103.91,63.96,103.91z"/>
		<path class="st0" d="M67.35,123.67c-5.69,0-10.29,4.6-10.29,10.42c0,5.68,4.6,10.29,10.29,10.29c5.82,0,10.42-4.6,10.42-10.29
			C77.77,128.27,73.17,123.67,67.35,123.67z"/>
		<path class="st0" d="M76.01,141.8c-5.68,0-10.42,4.6-10.42,10.29c0,5.82,4.74,10.42,10.42,10.42c5.68,0,10.42-4.6,10.42-10.42
			C86.43,146.41,81.69,141.8,76.01,141.8z"/>
		<path class="st0" d="M89,156.42c-5.82,0-10.42,4.6-10.42,10.42c0,5.68,4.6,10.29,10.42,10.29c5.68,0,10.29-4.6,10.29-10.29
			C99.29,161.02,94.69,156.42,89,156.42z"/>
		<path class="st0" d="M105.51,167.25c-5.68,0-10.29,4.6-10.29,10.29c0,5.82,4.6,10.42,10.29,10.42c5.68,0,10.42-4.6,10.42-10.42
			C115.94,171.85,111.2,167.25,105.51,167.25z"/>
		<path class="st0" d="M104.84,41.1c-5.68,0-10.29,4.74-10.29,10.42c0,5.68,4.6,10.42,10.29,10.42c5.82,0,10.42-4.74,10.42-10.42
			C115.26,45.84,110.66,41.1,104.84,41.1z"/>
		<path class="st0" d="M123.79,35.15c-5.68,0-10.29,4.6-10.29,10.29c0,5.82,4.6,10.42,10.29,10.42c5.82,0,10.42-4.6,10.42-10.42
			C134.21,39.75,129.61,35.15,123.79,35.15z"/>
		<path class="st0" d="M143.28,34.88c-5.82,0-10.42,4.74-10.42,10.42c0,5.69,4.6,10.29,10.42,10.29c5.68,0,10.29-4.6,10.29-10.29
			C153.56,39.61,148.96,34.88,143.28,34.88z"/>
		<path class="st0" d="M161.96,40.56c-5.68,0-10.29,4.6-10.29,10.29c0,5.82,4.6,10.42,10.29,10.42c5.68,0,10.42-4.6,10.42-10.42
			C172.38,45.16,167.64,40.56,161.96,40.56z"/>
		<path class="st0" d="M178.74,51.25c-5.68,0-10.29,4.74-10.29,10.42c0,5.69,4.6,10.29,10.29,10.29c5.82,0,10.42-4.6,10.42-10.29
			C189.16,55.99,184.56,51.25,178.74,51.25z"/>
		<path class="st0" d="M191.46,66.01c-5.68,0-10.29,4.6-10.29,10.29c0,5.68,4.6,10.42,10.29,10.42c5.82,0,10.42-4.74,10.42-10.42
			C201.89,70.61,197.28,66.01,191.46,66.01z"/>
		<path class="st0" d="M199.72,83.6c-5.68,0-10.42,4.6-10.42,10.42c0,5.69,4.74,10.29,10.42,10.29c5.69,0,10.29-4.6,10.29-10.29
			C210.01,88.2,205.4,83.6,199.72,83.6z"/>
		<path class="st0" d="M202.97,103.23c-5.82,0-10.42,4.6-10.42,10.42c0,5.68,4.6,10.29,10.42,10.29c5.69,0,10.29-4.6,10.29-10.29
			C213.25,107.83,208.65,103.23,202.97,103.23z"/>
		<path class="st0" d="M200.13,122.58c-5.68,0-10.42,4.6-10.42,10.42c0,5.68,4.74,10.29,10.42,10.29c5.68,0,10.42-4.6,10.42-10.29
			C210.55,127.19,205.81,122.58,200.13,122.58z"/>
		<path class="st0" d="M192.41,141.13c-5.82,0-10.42,4.6-10.42,10.42c0,5.68,4.6,10.29,10.42,10.29c5.68,0,10.29-4.6,10.29-10.29
			C202.7,145.73,198.1,141.13,192.41,141.13z"/>
		<path class="st0" d="M179.42,155.61c-5.68,0-10.29,4.6-10.29,10.29c0,5.82,4.6,10.42,10.29,10.42c5.68,0,10.42-4.6,10.42-10.42
			C189.84,160.21,185.1,155.61,179.42,155.61z"/>
		<path class="st0" d="M162.9,166.57c-5.82,0-10.42,4.6-10.42,10.42c0,5.68,4.6,10.29,10.42,10.29c5.69,0,10.29-4.6,10.29-10.29
			C173.19,171.17,168.59,166.57,162.9,166.57z"/>
		<path class="st0" d="M144.09,172.8c-5.68,0-10.42,4.6-10.42,10.42c0,5.68,4.74,10.29,10.42,10.29c5.68,0,10.42-4.6,10.42-10.29
			C154.51,177.4,149.77,172.8,144.09,172.8z"/>
		<path class="st0" d="M124.46,173.07c-5.68,0-10.29,4.6-10.29,10.29c0,5.82,4.6,10.42,10.29,10.42c5.68,0,10.42-4.6,10.42-10.42
			C134.89,177.67,130.15,173.07,124.46,173.07z"/>
	</g>
	<path class="st1" d="M133.53,58.02c-31.27,0-56.71,25.31-56.71,56.58c0,31.4,25.45,56.71,56.71,56.71
		c31.27,0,56.71-25.31,56.71-56.71C190.25,83.33,164.8,58.02,133.53,58.02z"/>
	<g>
		<g>
			<path class="st2" d="M94.28,103.91c0.27-2.84,3.11-2.98,3.11-2.98s3.52-0.27,3.52,3.11v4.33c0,0,0.13,1.08,1.22,1.08
				c0,0,0.95,0,1.08-1.22v-4.74c0,0,0.54-2.57,2.98-2.71c2.57,0,3.66,1.62,3.66,2.84c0,1.35,0,20.71,0,21.93
				c0,1.22-1.49,2.84-3.38,2.84c-1.76,0-3.11-1.62-3.11-2.84c0-1.22,0-9.88,0-9.88s-0.14-1.22-1.08-1.22
				c-0.81,0-1.49,0.68-1.49,1.22v10.15c0,0,0.14,2.03-2.84,1.89h-3.66v-4.87c0.95,0.13,1.76-0.41,2.44-0.95
				c1.9-2.3-0.27-4.6-2.44-6.09V103.91z M84.4,104.99c0,0-0.13-3.79,2.98-4.06c3.11-0.14,3.52,2.17,3.52,3.65
				c0,2.17,0.27,3.93,1.62,3.93c1.22,0,1.62-0.95,1.76-4.2c0-0.13,0-0.27,0-0.41v11.91c-1.49-1.08-2.98-1.76-2.98-1.76
				c-0.68,6.5,1.22,8.66,2.98,8.8v4.87h-6.5c0,0-2.84,0.41-3.38-2.3V104.99z"/>
			<path class="st2" d="M119.19,103.09c0-2.44-3.11-2.57-3.11-2.57c-2.84,0-3.38,2.57-3.38,2.57v22.6c0,0,0.41,2.71,3.38,2.71
				c0,0,2.57-0.27,3.11-2.57V103.09z"/>
		</g>
		<g>
			<path class="st2" d="M120.54,104.04c0,0,0-1.62,2.17-2.03h15.97c0,0,2.03-0.14,2.03,1.9c0,0-0.14,1.62-2.03,1.76
				c-1.9,0.13-2.3,0.13-2.3,0.13s-1.49,0.14-0.81,1.62c0.54,1.62,5.55,15.29,5.55,15.29s1.62,5.14-3.65,5.96
				c0,0-4.87,0.41-5.14-4.87l1.9-6.09c0,0,0.54-1.89-0.68-2.17c-0.27-0.14-1.22,0.14-1.76,1.49l-3.11,9.07c0,0-1.35,3.38-4.33,2.57
				c0,0-3.11-0.81-2.44-4.06l5.41-17.6c0,0,0.41-0.81-0.68-0.95h-3.79C122.84,106.07,120.67,105.94,120.54,104.04z"/>
			<path class="st2" d="M151.26,103.36c-0.54-2.57-3.52-2.57-3.52-2.57c-2.17,0-2.98,2.57-2.98,2.57v22.33c0,0,0.27,2.71,3.25,2.71
				c0,0,2.57,0,3.11-2.3L151.26,103.36z"/>
		</g>
		<g>
			<path class="st2" d="M157.49,114.87l24.9,0.13c0,0,1.08-0.13,1.22,1.08c0.14,0.27,0.27,1.22-1.08,1.76
				c-1.35,0.54-14.21,4.74-14.21,4.74s-1.08,0.41-0.81,1.08c0.27,0.54,0.81,0.41,2.17,0l10.56-2.98c0,0,3.11-0.68,3.93,2.98
				c0,0,0.14,3.93-2.71,3.93h-24.09c0,0-2.44,0-2.57-2.3c-0.27-2.3,1.62-2.71,1.62-2.71l10.29-3.25c0,0,0.68-0.14,0.54-0.54
				c-0.13-0.68-0.54-0.41-1.08-0.27c-0.41,0.14-7.58,2.3-7.58,2.3s-4.2,1.08-4.2-3.25C154.38,117.58,154.38,115,157.49,114.87z"/>
			<path class="st2" d="M177.52,103.63c0,0,0.13-2.71,3.38-2.71c0.81,0,2.98-0.14,2.98,2.84v7.99c0,0-0.13,2.44-3.11,2.57
				c-2.71,0-3.25-2.3-3.25-2.71C177.39,111.21,177.52,103.63,177.52,103.63z"/>
			<path class="st2" d="M165.2,101.6h6.77c0,0,1.89,0.27,1.89,2.17c0,1.9,0,8.12,0,8.12s-0.27,2.03-2.03,2.03h-6.63v-2.84
				c1.08,0,1.9-0.54,1.9-0.54c2.03-2.03,1.08-3.79,0.54-4.87c-0.68-0.95-1.76-0.68-2.17-0.81c0,0-0.13,0-0.27,0V101.6z
				 M156.27,101.6h8.93v3.25c-0.68,0-2.84,0-2.84,0h-0.14h0.14c0,0-0.27,2.44-0.14,3.79c0.27,1.35,0.81,1.76,0.81,1.76
				c0.81,0.54,1.62,0.81,2.17,0.68v2.84h-8.66c0,0-1.89,0.14-2.17-1.89v-7.99C154.38,101.6,156.27,101.6,156.27,101.6z"/>
		</g>
	</g>
</g>
</svg>
